<mxfile host="app.diagrams.net" modified="2021-09-07T15:08:52.074Z" agent="5.0 (Windows NT 10.0; Win64; x64) AppleWebKit/537.36 (KHTML, like Gecko) Chrome/92.0.4515.159 Safari/537.36" etag="kHNtFsbnLzzQ7_uLlVwn" version="15.0.6" type="github">
  <diagram id="nrqtXff0HYfs6OnfWKBm" name="Page-1">
    <mxGraphModel dx="782" dy="436" grid="1" gridSize="10" guides="1" tooltips="1" connect="1" arrows="1" fold="1" page="1" pageScale="1" pageWidth="827" pageHeight="1169" math="0" shadow="0">
      <root>
        <mxCell id="0" />
        <mxCell id="1" parent="0" />
        <mxCell id="eWDhtz83Sh44H-LtMt3F-1" value="" style="edgeStyle=orthogonalEdgeStyle;rounded=0;orthogonalLoop=1;jettySize=auto;html=1;" edge="1" parent="1" source="eWDhtz83Sh44H-LtMt3F-2" target="eWDhtz83Sh44H-LtMt3F-5">
          <mxGeometry relative="1" as="geometry" />
        </mxCell>
        <mxCell id="eWDhtz83Sh44H-LtMt3F-18" style="edgeStyle=orthogonalEdgeStyle;rounded=0;orthogonalLoop=1;jettySize=auto;html=1;entryX=1;entryY=0.5;entryDx=0;entryDy=0;" edge="1" parent="1" source="eWDhtz83Sh44H-LtMt3F-2" target="eWDhtz83Sh44H-LtMt3F-17">
          <mxGeometry relative="1" as="geometry" />
        </mxCell>
        <mxCell id="eWDhtz83Sh44H-LtMt3F-2" value="Start" style="ellipse;whiteSpace=wrap;html=1;" vertex="1" parent="1">
          <mxGeometry x="410" y="170" width="120" height="80" as="geometry" />
        </mxCell>
        <mxCell id="eWDhtz83Sh44H-LtMt3F-3" value="" style="edgeStyle=orthogonalEdgeStyle;rounded=0;orthogonalLoop=1;jettySize=auto;html=1;startArrow=none;" edge="1" parent="1" source="eWDhtz83Sh44H-LtMt3F-14">
          <mxGeometry relative="1" as="geometry">
            <mxPoint x="190" y="330" as="targetPoint" />
          </mxGeometry>
        </mxCell>
        <mxCell id="eWDhtz83Sh44H-LtMt3F-4" value="" style="edgeStyle=orthogonalEdgeStyle;rounded=0;orthogonalLoop=1;jettySize=auto;html=1;" edge="1" parent="1" source="eWDhtz83Sh44H-LtMt3F-5" target="eWDhtz83Sh44H-LtMt3F-8">
          <mxGeometry relative="1" as="geometry" />
        </mxCell>
        <mxCell id="eWDhtz83Sh44H-LtMt3F-21" style="edgeStyle=orthogonalEdgeStyle;rounded=0;orthogonalLoop=1;jettySize=auto;html=1;exitX=0;exitY=1;exitDx=0;exitDy=0;entryX=0.5;entryY=1;entryDx=0;entryDy=0;" edge="1" parent="1" source="eWDhtz83Sh44H-LtMt3F-5" target="eWDhtz83Sh44H-LtMt3F-11">
          <mxGeometry relative="1" as="geometry">
            <Array as="points">
              <mxPoint x="450" y="390" />
              <mxPoint x="130" y="390" />
            </Array>
          </mxGeometry>
        </mxCell>
        <mxCell id="eWDhtz83Sh44H-LtMt3F-5" value="" style="rhombus;whiteSpace=wrap;html=1;" vertex="1" parent="1">
          <mxGeometry x="430" y="290" width="80" height="80" as="geometry" />
        </mxCell>
        <mxCell id="eWDhtz83Sh44H-LtMt3F-6" value="drive(BASEDIST,1)" style="rounded=1;whiteSpace=wrap;html=1;" vertex="1" parent="1">
          <mxGeometry x="410" y="400" width="120" height="60" as="geometry" />
        </mxCell>
        <mxCell id="eWDhtz83Sh44H-LtMt3F-7" style="edgeStyle=orthogonalEdgeStyle;rounded=0;orthogonalLoop=1;jettySize=auto;html=1;entryX=1;entryY=0.5;entryDx=0;entryDy=0;exitX=1;exitY=0.5;exitDx=0;exitDy=0;" edge="1" parent="1" source="eWDhtz83Sh44H-LtMt3F-8" target="eWDhtz83Sh44H-LtMt3F-5">
          <mxGeometry relative="1" as="geometry">
            <Array as="points">
              <mxPoint x="560" y="540" />
              <mxPoint x="560" y="330" />
            </Array>
          </mxGeometry>
        </mxCell>
        <mxCell id="eWDhtz83Sh44H-LtMt3F-8" value="turn(BASEDIST,+-1)" style="rounded=1;whiteSpace=wrap;html=1;" vertex="1" parent="1">
          <mxGeometry x="410" y="510" width="120" height="60" as="geometry" />
        </mxCell>
        <mxCell id="eWDhtz83Sh44H-LtMt3F-9" value="BASEDIST = 562" style="text;html=1;align=center;verticalAlign=middle;resizable=0;points=[];autosize=1;strokeColor=none;" vertex="1" parent="1">
          <mxGeometry x="240" y="250" width="110" height="20" as="geometry" />
        </mxCell>
        <mxCell id="eWDhtz83Sh44H-LtMt3F-10" value="i = 14" style="text;html=1;align=center;verticalAlign=middle;resizable=0;points=[];autosize=1;strokeColor=none;" vertex="1" parent="1">
          <mxGeometry x="375" y="300" width="50" height="20" as="geometry" />
        </mxCell>
        <mxCell id="eWDhtz83Sh44H-LtMt3F-11" value="Stop" style="ellipse;whiteSpace=wrap;html=1;" vertex="1" parent="1">
          <mxGeometry x="70" y="290" width="120" height="80" as="geometry" />
        </mxCell>
        <mxCell id="eWDhtz83Sh44H-LtMt3F-12" value="i++" style="text;html=1;align=center;verticalAlign=middle;resizable=0;points=[];autosize=1;strokeColor=none;" vertex="1" parent="1">
          <mxGeometry x="575" y="480" width="30" height="20" as="geometry" />
        </mxCell>
        <mxCell id="eWDhtz83Sh44H-LtMt3F-13" value="BASEDEG = 3,3Â°" style="text;html=1;align=center;verticalAlign=middle;resizable=0;points=[];autosize=1;strokeColor=none;" vertex="1" parent="1">
          <mxGeometry x="240" y="220" width="110" height="20" as="geometry" />
        </mxCell>
        <mxCell id="eWDhtz83Sh44H-LtMt3F-14" value="&lt;span&gt;drive(BASEDIST,1)&lt;/span&gt;" style="rounded=1;whiteSpace=wrap;html=1;" vertex="1" parent="1">
          <mxGeometry x="255" y="300" width="120" height="60" as="geometry" />
        </mxCell>
        <mxCell id="eWDhtz83Sh44H-LtMt3F-15" value="" style="edgeStyle=orthogonalEdgeStyle;rounded=0;orthogonalLoop=1;jettySize=auto;html=1;endArrow=none;" edge="1" parent="1" source="eWDhtz83Sh44H-LtMt3F-5" target="eWDhtz83Sh44H-LtMt3F-14">
          <mxGeometry relative="1" as="geometry">
            <mxPoint x="430" y="330" as="sourcePoint" />
            <mxPoint x="250" y="330" as="targetPoint" />
          </mxGeometry>
        </mxCell>
        <mxCell id="eWDhtz83Sh44H-LtMt3F-19" style="edgeStyle=orthogonalEdgeStyle;rounded=0;orthogonalLoop=1;jettySize=auto;html=1;entryX=0.5;entryY=0;entryDx=0;entryDy=0;" edge="1" parent="1" source="eWDhtz83Sh44H-LtMt3F-17">
          <mxGeometry relative="1" as="geometry">
            <mxPoint x="130" y="290" as="targetPoint" />
            <Array as="points">
              <mxPoint x="220" y="210" />
              <mxPoint x="130" y="210" />
            </Array>
          </mxGeometry>
        </mxCell>
        <mxCell id="eWDhtz83Sh44H-LtMt3F-17" value="" style="rounded=1;whiteSpace=wrap;html=1;" vertex="1" parent="1">
          <mxGeometry x="190" y="70" width="120" height="60" as="geometry" />
        </mxCell>
        <mxCell id="eWDhtz83Sh44H-LtMt3F-22" value="if(btn = 1)" style="text;html=1;align=center;verticalAlign=middle;resizable=0;points=[];autosize=1;strokeColor=none;fillColor=none;" vertex="1" parent="1">
          <mxGeometry x="235" y="390" width="70" height="20" as="geometry" />
        </mxCell>
      </root>
    </mxGraphModel>
  </diagram>
</mxfile>
